<mxfile host="app.diagrams.net" modified="2023-08-18T07:02:34.407Z" agent="Mozilla/5.0 (Windows NT 10.0; Win64; x64) AppleWebKit/537.36 (KHTML, like Gecko) Chrome/114.0.0.0 Safari/537.36" version="21.6.6" etag="UEqPS50zWc729KeMss3k" type="github">
  <diagram name="หน้า-1" id="V54rJkGDe6UenH7iF8Wh">
    <mxGraphModel>
      <root>
        <mxCell id="0" />
        <mxCell id="1" parent="0" />
      </root>
    </mxGraphModel>
  </diagram>
</mxfile>
